<?xml version="1.0" encoding="utf-8"?>
<!-- Generator: Adobe Illustrator 19.2.1, SVG Export Plug-In . SVG Version: 6.00 Build 0)  -->
<svg version="1.1" id="图层_1" xmlns="http://www.w3.org/2000/svg" xmlns:xlink="http://www.w3.org/1999/xlink" x="0px" y="0px"
	 viewBox="0 0 40 40" style="enable-background:new 0 0 40 40;" xml:space="preserve">
<style type="text/css">
	.st0{fill:#F0F0F0;}
	.st1{fill:#454649;}
	.st2{fill:#698EFF;}
</style>
<title>keymesh-logo--small</title>
<desc>Created using Figma</desc>
<g id="Canvas" transform="translate(1366 414)">
	<g id="keymesh-logo--small">
		<g id="Ellipse">
			<g transform="translate(-1366 -414)">
				<path id="path0_fill" class="st0" d="M-1286-394c0,33.1-26.9,60-60,60s-60-26.9-60-60s26.9-60,60-60S-1286-427.1-1286-394z"/>
			</g>
		</g>
		<g id="g10">
			<g id="g12">
				<g id="path14">
					<g transform="matrix(1.33333 0 0 -1.33333 -1357.3 -390.739)">
						<path id="path1_fill" class="st1" d="M-1337.5-428.2l-8.5-4.9l-8.5,4.9l-8.5,4.9l-8.5,4.9l-8.5,4.9v9.8l8.5,4.9h0v-9.8
							l8.5-4.9l8.5-4.9l8.5-4.9l8.5,4.9v9.8l0,0l0,0v9.8v9.8l0,0l8.5,4.9v-9.8v-9.8v-9.8v-9.8L-1337.5-428.2z"/>
					</g>
				</g>
			</g>
			<g id="g16">
				<g id="path18">
					<g transform="matrix(1.33333 0 0 -1.33333 -1351.66 -384.217)">
						<path id="path2_fill" class="st1" d="M-1312.1-384.2v-9.8v-9.8l0,0l0,0v-9.8l-8.5-4.9l-8.5,4.9l8.5,4.9v9.8v9.8v9.8l-8.5,4.9
							l-8.5-4.9l-8.5-4.9l-8.5-4.9l-8.5,4.9l8.5,4.9l8.5,4.9l8.5,4.9l8.5,4.9l8.5-4.9l8.5-4.9l0,0l0,0V-384.2z"/>
					</g>
				</g>
			</g>
			<g id="g20">
				<g id="path22">
					<g transform="matrix(1.33333 0 0 -1.33333 -1357.3 -380.957)">
						<path id="path3_fill" class="st2" d="M-1337.5-369.5l-8.5,4.9l-8.5-4.9l-8.5-4.9l-8.5-4.9v-9.8l8.5-4.9l8.5-4.9l8.5-4.9v-9.8
							l-8.5,4.9l-8.5,4.9l-8.5,4.9l-8.5,4.9v9.8v9.8l8.5,4.9l8.5,4.9l8.5,4.9l8.5,4.9l8.5-4.9V-369.5z"/>
					</g>
				</g>
			</g>
		</g>
	</g>
</g>
</svg>
